# xmcd
#
# Track frame offsets:
#       150
#       7800
#       19715
#       32050
#       42467
#       53732
#       65420
#       75067
#       84125
#       94822
#       106462
#       119705
#       134452
#       146165
#       159455
#       172995
#       183482
#       192760
#       204575
#       216830
#
# Disc length: 3005 seconds
#
# Revision: 0
# Processed by: cddbd v1.5.1PL0 Copyright (c) Steve Scherf et al.
# Submitted via: CD-DA_X-Tractor v0.24
#
DISCID=090bbb14
DTITLE=Various Artist - Best Of Acappella Volume 4
DYEAR=1996
DGENRE=Acappella
TTITLE0=Nicky and Naks - The White Cliffs Of Dover
TTITLE1=Semesters - Laura My Love
TTITLE2=Notations - Lost Love
TTITLE3=Ginger and Adorables - He's Gone
TTITLE4=Little Joe and Majestics - Every Day Of The Week
TTITLE5=Quotations - I'll Be Home
TTITLE6=Tremonts - Merry Go Round Love
TTITLE7=Majestics - Ave Maria
TTITLE8=Durhams - I Remember
TTITLE9=Notations - For Your Precious Love
TTITLE10=Islanders - Walking In The Rain
TTITLE11=Little Joe and Majestics - I'm So Young
TTITLE12=Semesters - Spiral
TTITLE13=Rondells - My Prayer
TTITLE14=Horizons - A Story Of Love
TTITLE15=Tremonts - I Hear The Wind
TTITLE16=Citadels - I'll Never Let You Go
TTITLE17=Notations - Kentucky Babe
TTITLE18=Quotations - Why You Do Me Like You Do
TTITLE19=Semesters - Summer Nights
EXTD=
EXTT0=
EXTT1=
EXTT2=
EXTT3=
EXTT4=
EXTT5=
EXTT6=
EXTT7=
EXTT8=
EXTT9=
EXTT10=
EXTT11=
EXTT12=
EXTT13=
EXTT14=
EXTT15=
EXTT16=
EXTT17=
EXTT18=
EXTT19=
PLAYORDER=
